<svg version="1.0" xmlns="http://www.w3.org/2000/svg" width="346.667" height="346.667" viewBox="0 0 260 260"><path d="M20.9 35.2c0 1.3-.2 3-.3 3.8-.2.8-.7 6.9-1 13.5-.4 6.6-.9 13.6-1.1 15.5-.2 1.9-.7 8.4-1 14.5-.4 6-.8 12.3-1 14-.2 1.6-.6 8.2-1 14.5-.4 6.3-.8 12.5-1 13.7-.3 2.2 0 2.3 5.5 2.3 3.2 0 6.1-.3 6.3-.8.3-.4.8-6.8 1.2-14.2.4-7.4.8-15.1 1-17 .2-1.9.6-10.5 1-19s.9-17.1 1.1-19c.1-1.9.3-4.6.4-6 0-1.4 1 .9 2.1 5 2 7.9 21.5 66.4 22.9 69 .6 1 2.4 1.5 5.4 1.5h4.5l10.2-28C81.7 83.1 88 65.3 90.1 59l3.8-11.5.1 9.5c.1 5.2.3 11.7.5 14.5.2 2.7.6 10.2.9 16.5 1.5 27.7 1.8 32.7 2.1 35.5.2 2.9.3 3 6.4 3.3l6.2.3-.6-9.3c-.3-5.1-.8-12-1-15.3-.3-3.3-.7-10.7-1-16.5-.3-5.8-.8-12.8-1-15.5-.2-2.8-.7-10.6-1.1-17.5-.3-6.9-.8-13.6-.9-15-.2-1.4-.4-3.1-.4-3.7-.1-1.7-14.6-1.6-15.9 0C85.9 37.4 63 103 63 106.5c0 .8-.4 1.5-1 1.5-.5 0-1-.8-1-1.8 0-2.6-5.1-18.5-15.2-47.3l-9-25.6-7.9-.2c-7.6-.2-7.9-.1-8 2.1zm185.8 3.9C194.3 42 184 53.4 189.6 58c.8.8 3.2 1.7 5.2 2.1 3.5.6 3.6.7.7.8l-3 .2L196 63c1.9 1.1 4.5 1.9 5.7 2 1.8 0 2.5.9 3.3 4.2.6 2.4 2.3 8.4 3.6 13.5l2.5 9.2-2 3.6c-2.7 5.1-.7 9.4 6.2 13.5 4 2.4 11.9 3 18.2 1.6 2.8-.7 3.2-.5 5.3 3.8 1.2 2.5 2.6 4.6 3.2 4.6.5 0 .9.3.9.7-.4 2.2.2 3.3 1.3 2.7.8-.5.9-.2.5 1-.4 1-.3 1.5.3 1.1.6-.3 1 0 1 .8s.7 2 1.5 2.7c.8.6-.2-2.1-2.1-6.2-2-4-4-8.3-4.5-9.6-.5-1.4-1.4-2-2.1-1.6-2.3 1.5.6-2.1 4.9-6 6.9-6 9-13.4 5.8-19.6-1.3-2.4-2.3-3-6.4-3.6l-4.9-.6-7.8-11.2c-4.3-6.1-7.8-11.8-7.7-12.6 0-.8.4-3.1.8-5l.8-3.5-3.2 3c-2.4 2.2-3.1 3.7-2.9 5.6.3 2.1-.2 3.1-2.5 4.4-2.9 1.7-3 1.7-4.6-.4-1.2-1.5-2.3-2-3.6-1.6-1.1.4.8-.7 4.2-2.4 18.7-9.4 15-22.7-5-18zm-2.9 21.6c-1 .2-2.6.2-3.5 0-1-.3-.2-.5 1.7-.5s2.7.2 1.8.5zm24.8 15.5c4.9 8.4 9 15.8 9.2 16.4.3 1.2-3.9 4.6-7.1 5.7-1.5.6-2.4-.6-5.1-6.6-1.9-3.9-5-10.8-7.1-15.2-5.8-12.4-5.7-12.1-3.2-13.9 1.2-.8 2.7-1.5 3.3-1.5.6-.1 5.1 6.8 10 15.1zm14.9 19.9c3.4 2.1 3.5 2.2 1.9 4.1-2.4 2.6-7.3 5.5-12.3 7.3l-4.1 1.4v-4.4c0-4 .3-4.5 3.5-6 1.9-.9 3.9-2.3 4.6-3.1 1.5-1.9 2.1-1.8 6.4.7zM120 60.2c0 .5 5.7 15 12.6 32.3 9.1 22.7 12.4 32.1 11.9 33.7-2 6.9-11.7 17-18.9 19.8-1.5.5-2.5 1.3-2.3 1.7.3.5 1 2.7 1.6 5 .9 3.3 1.7 4.3 3.2 4.3 3.6 0 10.3-4.2 16-10 8.5-8.8 13.5-19.8 36.3-80.2 1.4-3.7 2.2-6.9 1.8-7.1-.4-.1-3.4-.3-6.7-.2h-6L161 85.2c-4.7 14.2-8.8 25.8-9.1 25.8-.3 0-1.1-2.2-1.7-4.8-.7-2.6-4.8-14.2-9.1-25.7l-7.8-21h-6.6c-3.7 0-6.7.3-6.7.7zm71.9 72.6c-.1.4-.2 22.6-.3 49.4l-.3 48.8H202l.1-3.8c.1-2 0-4.4-.1-5.2-.1-.8 1.5.2 3.7 2.4 13.7 13.9 36.4 9.3 45.5-9.2 3.2-6.4 3.3-7.1 3.3-18.7 0-10.9-.2-12.5-2.6-17.5-3.1-6.4-7.6-11.3-13.3-14.3-3.2-1.6-6-2.1-12.1-2.1-9.2-.1-13.7 1.6-19.1 7.2l-3.4 3.5v-41l-6-.1c-3.3 0-6 .2-6.1.6zm38.3 41.1c2.8 1.1 7.5 5.7 9.3 9.1 2.3 4.5 3.4 13 2.4 19.4-1.3 7.6-4 12.8-8.6 16.3-3.1 2.4-4.5 2.8-10.3 2.8-5.5 0-7.3-.4-10.7-2.7-6.2-4.1-8.3-9.4-8.3-20.9 0-8.2.4-10.2 2.6-14.7 4.5-9.1 14.2-12.9 23.6-9.3zM2.6 139.7c.4 1.6 5.7 22.6 11.8 46.8l11.2 44 6.6.3 6.7.3 1.1-4.3c.6-2.4 4.3-15.8 8.2-29.8 3.8-14 7.8-29.1 8.8-33.5 1-4.4 2-7.3 2.3-6.5.3.8 1.9 8 3.7 16 1.7 8 5.5 24.2 8.4 36l5.2 21.5 6.5.3 6.6.3 2.2-7.8c10.3-35.3 24-84.7 23.6-85.3-.7-1.2-11.3-1.1-12.1.1-.7 1.2-12.4 46-16 61.3-3.5 15.1-3.4 15-5.1 7.1-1.4-6.9-13.5-58.6-15.4-65.6l-.9-3.6-6.5-.2c-3.6-.1-6.5.1-6.5.4 0 .3-2.2 8.7-4.9 18.7C40 186 34 209.9 34 212.3c-.1 4.1-1.7-.4-4-11.3-2.7-13.2-13.8-60.3-14.6-62.4-.5-1.2-2.1-1.6-7-1.6H2l.6 2.7zm138.9 23.2c-13.8 3.6-22.9 16.1-23.8 32.6-.9 16 5.4 28 17.8 33.7 4.4 2 6.5 2.3 17 2.2 7.9 0 13.4-.5 16-1.5 3.8-1.4 4-1.6 3.7-5.4-.2-2.2-.6-4.3-1-4.7-.4-.4-3-.1-5.7.8-7.9 2.4-18.8 2-24.3-.8-2.5-1.3-5.4-3.5-6.5-5-2.7-3.6-5.8-13.1-4.7-14.2.5-.5 11.2-1 23.7-1l22.8-.1V192c0-12.4-5.4-22.4-14.8-27.1-4.3-2.2-15.3-3.3-20.2-2zm11 9.2c6.8 1.9 11.1 7.1 11.7 14.4l.3 3.8-14.7-.1c-20 0-19.8 0-19.8-1.5 0-.6 1.1-3.5 2.4-6.3 3.1-6.6 7.4-9.7 15.6-11.3.3 0 2.3.4 4.5 1z"/></svg>